<?xml version="1.0" standalone="no"?><!DOCTYPE svg PUBLIC "-//W3C//DTD SVG 1.1//EN" "http://www.w3.org/Graphics/SVG/1.1/DTD/svg11.dtd"><svg t="1622460014709" class="icon" viewBox="0 0 1024 1024" version="1.1" xmlns="http://www.w3.org/2000/svg" p-id="13607" xmlns:xlink="http://www.w3.org/1999/xlink" width="248" height="248"><defs><style type="text/css"></style></defs><path d="M512 128C311.466667 128 149.333333 288 149.333333 486.4c0 177.066667 130.133333 324.266667 302.933334 354.133333 19.2 2.133333 12.8 55.466667 32 55.466667 17.066667 0 61.866667-53.333333 78.933333-55.466667C740.266667 814.933333 874.666667 667.733333 874.666667 486.4 874.666667 288 712.533333 128 512 128z m44.8 518.4c0 25.6-21.333333 44.8-44.8 44.8s-44.8-19.2-44.8-44.8v-119.466667c0-25.6 21.333333-44.8 44.8-44.8 25.6 0 44.8 19.2 44.8 44.8v119.466667z m14.933333-262.4c0 32-27.733333 57.6-59.733333 59.733333-34.133333 0-61.866667-25.6-61.866667-59.733333 0-34.133333 27.733333-59.733333 59.733334-59.733333 36.266667 0 61.866667 27.733333 61.866666 59.733333z" fill="#4DCDD6" p-id="13608"></path></svg>