<?xml version="1.0" standalone="no"?><!DOCTYPE svg PUBLIC "-//W3C//DTD SVG 1.1//EN" "http://www.w3.org/Graphics/SVG/1.1/DTD/svg11.dtd"><svg t="1622460030388" class="icon" viewBox="0 0 1024 1024" version="1.1" xmlns="http://www.w3.org/2000/svg" p-id="14040" xmlns:xlink="http://www.w3.org/1999/xlink" width="248" height="248"><defs><style type="text/css"></style></defs><path d="M512 946.086957C272.250435 946.086957 77.913043 751.749565 77.913043 512S272.250435 77.913043 512 77.913043 946.086957 272.250435 946.086957 512 751.749565 946.086957 512 946.086957z m0-66.782609c202.863304 0 367.304348-164.441043 367.304348-367.304348S714.863304 144.695652 512 144.695652 144.695652 309.136696 144.695652 512 309.136696 879.304348 512 879.304348z m0-122.434783a44.521739 44.521739 0 1 1 0-89.043478 44.521739 44.521739 0 0 1 0 89.043478z m0-489.73913a44.521739 44.521739 0 0 1 44.521739 44.521739v244.869565a44.521739 44.521739 0 1 1-89.043478 0V311.652174a44.521739 44.521739 0 0 1 44.521739-44.521739z" p-id="14041" fill="#ffffff"></path></svg>