<?xml version="1.0" standalone="no"?><!DOCTYPE svg PUBLIC "-//W3C//DTD SVG 1.1//EN" "http://www.w3.org/Graphics/SVG/1.1/DTD/svg11.dtd"><svg t="1622460109802" class="icon" viewBox="0 0 1024 1024" version="1.1" xmlns="http://www.w3.org/2000/svg" p-id="14417" xmlns:xlink="http://www.w3.org/1999/xlink" width="248" height="248"><defs><style type="text/css"></style></defs><path d="M965.4 623.4c-51.8-10.7-90.6-56.5-90.6-111.4s38.8-100.6 90.5-111.4c13.2-2.7 22.7-14.2 22.7-27.6V262.7c0-15.6-12.6-28.2-28.2-28.2H45.9c-5.5 0-10 4.5-10 10V373c0 13.5 9.6 24.9 22.7 27.6 51.7 10.8 90.5 56.5 90.5 111.4s-38.8 100.6-90.5 111.4c-13.1 2.8-22.7 14.2-22.7 27.6v110.3c0 15.6 12.6 28.2 28.2 28.2h895.8c15.6 0 28.2-12.6 28.2-28.2V651c0-13.5-9.6-24.9-22.7-27.6zM621.2 477v42.8h-93.5v52.3h93.5v42.2h-93.5v64.5H486v-64.5h-86.4v-42.2H486v-52.3h-86.4v-42.7h76.3l-93-130.1 34-24.4 90.5 126.5 97.1-127.6 33 24.9L538.4 477h82.8z" fill="#FBB03B" p-id="14418"></path></svg>