<?xml version="1.0" standalone="no"?><!DOCTYPE svg PUBLIC "-//W3C//DTD SVG 1.1//EN" "http://www.w3.org/Graphics/SVG/1.1/DTD/svg11.dtd"><svg t="1623222272391" class="icon" viewBox="0 0 1024 1024" version="1.1" xmlns="http://www.w3.org/2000/svg" p-id="21335" xmlns:xlink="http://www.w3.org/1999/xlink" width="248" height="248"><defs><style type="text/css"></style></defs><path d="M771.468148 886.193285c-4.899331 6.775671-13.4471 7.401117-19.701565 11.779243-27.206923 6.462947-49.93148 22.828798-74.636617 34.60804-14.906475 7.088394-31.272326 11.883484-43.364292 24.496655-1.250893 6.671429-8.860492 3.85692-11.779242 7.818082-21.473664 3.752679-38.569202 17.408261-57.853802 25.95603-15.427681 6.879912-30.229915 15.114957-45.449114 22.411833-3.961161 1.87634-9.173215 7.296876-12.717412-1.146652V693.243037c11.258037-16.261609 17.199779 1.87634 25.539066 3.961161a116.541533 116.541533 0 0 1 23.03728 26.477236c7.609599 9.694421 15.844645 19.076119 23.03728 29.083262 8.756251 12.196207 19.076119 23.350003 28.666298 34.920764 0 9.381698 5.629019 13.551341 13.238618 9.694421 33.774112-17.30402 69.633045-31.272326 100.90537-52.954472 6.045983-9.173215 17.929467-8.547769 25.851789-15.114957a15.531922 15.531922 0 0 1 9.59018-4.482367c18.763395-2.91875 33.357147-15.32344 50.452685-21.994868 6.358706-2.501786 11.466519-8.756251 19.493083-6.254466 5.316295 7.71384 2.501786 16.36585 2.606027 24.496655V847.311361c1.355134 9.068974-6.567188 9.798662-11.779242 13.030135-15.114957 9.173215-32.62746 12.821653-45.13639 25.851789z" p-id="21336"></path><path d="M641.583756 413.981169l95.380593 47.221212c1.772098 0.93817 3.439956 1.563616 3.022991 3.961161 14.697993 14.489511 35.025005 18.971878 52.120543 29.083263 8.339287 4.899331 17.408261 8.65201 26.060271 13.134377 4.378126 2.293304 10.424109 3.231474 10.424109 9.798662s-6.150224 9.068974-10.424109 11.883483a188.676364 188.676364 0 0 0-27.102682 14.802235 209.837305 209.837305 0 0 1-43.677015 23.558485c-36.48438 18.659154-72.96876 36.797103-109.765862 55.143534-8.443528-3.231474-14.802234 2.501786-20.848217 5.73326q-42.947327 20.848217-85.581931 42.738845c-9.59018 4.899331-18.24219 7.505358-25.539066-3.335715-5.941742-17.929467-2.293304-36.380139-2.501786-54.413847-0.93817-78.285055 0-156.361628 0-234.959406a40.237059 40.237059 0 0 1 3.127232-20.848217c6.671429-8.860492 12.925895-1.772098 18.763396 1.042411l103.094433 51.390855c3.544197 2.606027 7.609599 6.254465 13.4471 4.065402z" p-id="21337"></path><path d="M291.437951 461.202381c6.045983-9.173215 17.929467-8.547769 25.851789-15.114957a15.531922 15.531922 0 0 1 9.59018-4.482367c8.026564 2.084822 13.4471-3.752679 19.597324-6.775671 46.804247-23.141521 93.816977-46.804247 140.3085-69.737286 5.524778-2.710268 11.049555-10.424109 18.763396-3.544196 0.625447 101.113853 0 202.123464 0 303.133075-4.065402 15.740404-13.238618 5.941742-19.493083 2.918751-31.272326-15.010716-62.023446-31.272326-93.087289-46.178801-7.192635-3.544197-14.072547-9.59018-23.245762-6.671429l-40.237059-19.597325c-1.772098-0.833929-3.439956-1.563616-3.022992-3.961161-42.426122-23.454244-86.311619-44.19822-129.884392-65.463401-13.238618-5.107813-8.964733-9.59018 0-14.281029 26.164512-13.030136 52.120543-25.95603 78.493537-39.298889 6.358706-3.022991 13.238618-4.273884 16.365851-10.945314z" p-id="21338"></path><path d="M370.035729 614.7495c3.022991-7.088394 7.505358-4.065402 11.987725-1.772099l47.221211 23.558485c20.848217 10.424109 41.696434 19.910047 61.814964 31.272326a32.210495 32.210495 0 0 0 12.717412 2.501786c2.606027 0 5.212054 2.606027 7.818082 0 4.273884 0 6.254465 5.212054 13.134376 1.459375 33.044424-17.825226 67.131259-33.774112 100.80113-50.452685 4.482367-2.189063 8.964733-5.316295 11.987724 1.772098h-3.961161c-1.250893 1.355134-2.710268 2.501786-3.961161 3.961162-4.169643-0.729688-6.879912 1.980581-10.424109 3.752679q-47.012729 23.558485-95.589075 46.700006c-5.629019 2.710268-4.482367 4.586608-1.876339 8.235046s8.65201 5.941742 9.694421 11.675001c0 1.87634-0.521205 4.378126-2.606027 3.022992a36.275898 36.275898 0 0 1-8.339287-8.235046c-2.501786-3.231474-5.524778-2.710268-8.756251-2.710268-6.254465-1.563616-4.899331-8.130805-7.818082-11.779243-5.629019 1.87634-9.798662-2.501786-13.759823-4.482367-35.233487-17.199779-70.050009-35.233487-104.866532-53.371435-2.606027-1.355134-4.899331-0.625447-7.296876-1.146652s-2.606027-2.606027-3.961161-3.961161z" p-id="21339"></path><path d="M511.699364 669.788792c0 3.648438-2.293304 4.169643-4.899331 3.856921a3.022991 3.022991 0 0 1-3.022992-3.856921 190.23998 190.23998 0 0 0 0-19.597324c-0.729688-7.401117 3.648438-15.740404-3.752679-21.994868a61.293758 61.293758 0 0 0 4.169644-20.014289V445.149254a77.346885 77.346885 0 0 1-0.833929-24.392414 98.299343 98.299343 0 0 0 0.521205-27.311164v-27.519647c0-2.814509 1.563616-6.984153-3.85692-7.088394q-1.667857-1.355134-1.146652-2.606027t1.146652-1.355134a3.335715 3.335715 0 0 0 3.961161-3.961161c-1.459375-1.146652-2.397545-2.814509-3.961161-3.961161s-1.355134-1.772098-1.042411-2.606027 0.625447-1.355134 1.042411-1.355135c3.85692 1.459375 10.424109-3.648438 11.779243 3.961162a5.212054 5.212054 0 0 1 0 7.818081c-5.420536 0-3.85692 4.169643-3.85692 6.984153v249.136193c0 5.837501-2.084822 13.342859 0.729687 17.199779 5.003572 6.879912-3.335715 10.424109-1.042411 16.887056a60.042865 60.042865 0 0 1 0 17.512503c0.312723 3.127233-1.250893 7.296876 4.065403 7.296875zM503.881282 677.711115c6.671429 1.250893 3.85692 8.860492 7.818082 11.779243a3.022991 3.022991 0 0 0-3.85692 3.127232v310.534193c0 4.273884-3.85692 10.424109 3.752679 12.925895q1.772098 1.355134 1.146652 2.606027t-1.146652 1.355134c0 3.648438-2.293304 4.169643-4.899331 3.85692a3.022991 3.022991 0 0 1-3.022992-3.85692 5.316295 5.316295 0 0 1 0-7.818082V693.451519c-1.667857-0.93817-3.648438-1.563616-3.961161-3.961161 0.833929-4.169643 6.045983-6.775671 4.169643-11.779243z" p-id="21340"></path><path d="M362.217647 30.999422c0.625447 3.961161-1.250893 5.316295-5.420536 5.420537s-13.968305-2.814509-16.678574 0.833929-1.250893 11.153796-1.459375 16.887055a64.004026 64.004026 0 0 0 0 7.818082c0 4.378126-1.772098 5.420536-5.733259 5.316295s-6.254465 0-6.150224-5.003572 0-11.779243 0-17.720985 0-10.424109-8.130805-8.964733a70.779697 70.779697 0 0 1-11.779243 0c-3.85692 0-3.752679-2.606027-3.752679-5.212054s-0.625447-6.462947 4.378126-6.67143 14.593752 3.022991 18.450672-2.084821 0.833929-11.362278 0.729687-17.199779 3.648438-4.169643 6.775671-4.273885 5.316295 0 5.107813 3.961161 0 5.212054 0 7.818082c0 11.57076 0 11.57076 10.945314 11.779242h7.818081c4.586608 1.146652 5.003572 1.772098 4.899331 7.296876z" p-id="21341"></path><path d="M859.447624 224.887841c-4.065402 0.625447-5.629019-1.146652-5.524778-5.420537v-21.682145c0-3.335715-1.459375-4.482367-4.586607-4.482367h-15.740404c-5.316295 0-3.335715-3.127233-3.335715-5.73326s-0.521205-5.316295 2.91875-6.045983h1.980581c6.254465-0.833929 14.489511 3.231474 18.137949-2.501786s0.312723-11.049555 0.312723-16.678573c0-3.85692 2.606027-3.752679 5.212054-3.752679s6.462947-0.625447 6.67143 4.378125-3.022991 14.593752 2.084822 18.450672 11.362278 0.833929 17.199779 0.729688 4.169643 3.648438 4.273884 6.77567 0 4.586608-3.85692 5.316296c-6.567188 1.250893-15.531922-4.79509-19.18036 3.127232a52.120543 52.120543 0 0 0 0 19.493083c-0.208482 3.85692 1.563616 9.59018-6.567188 8.026564z" p-id="21342"></path><path d="M791.065472 543.865562c-3.231474 0-5.420536-2.084822-1.563616-3.752679 10.424109-4.482367 20.848217-10.424109 31.272325-15.32344 4.169643-1.87634 6.254465-2.606027 6.045983-7.296876s-3.022991-3.85692-5.941742-5.316295c-25.747548-12.717412-50.661167-26.685718-76.408715-38.881925a16.053127 16.053127 0 0 1-7.922323-6.67143c-1.250893-2.293304 0.93817-3.961161 1.563617-1.459375a8.026564 8.026564 0 0 0 1.876339 0l82.350458 41.175229c14.906475 7.505358 14.906475 7.505358 27.519646-1.980581 0 2.397545 0.729688 4.79509-1.250893 7.296876a70.258491 70.258491 0 0 1-13.968305 10.424109l13.759823 13.759823a21.786387 21.786387 0 0 1 4.065402 4.169643 6.775671 6.775671 0 0 1 0.833929 5.212055c-1.355134 2.814509-2.814509 0.521205-3.961161-0.625447-4.586608-4.586608-9.277457-9.068974-13.759824-13.864064a10.424109 10.424109 0 0 0-13.551341-1.667858 104.241085 104.241085 0 0 1-30.959602 14.802235z" p-id="21343"></path><path d="M499.920121 354.980715v3.961161a166.785736 166.785736 0 0 1-38.986166 20.848217c-41.696434 20.848217-84.122556 41.696434-126.131713 63.37858-3.85692 1.980581-6.671429 4.378126-8.130805-1.876339l165.013638-82.663181z" p-id="21344"></path><path d="M511.699364 354.980715v-7.818081a10.424109 10.424109 0 0 0 8.860492-2.606027c1.459375-1.563616 3.022991-7.401117 6.567188-3.231474s-1.355134 5.73326-3.648438 7.922323-5.003572 3.335715 1.459375 6.254465c25.851789 11.987725 50.661167 26.060271 76.304475 38.569201 4.065402 1.980581 8.026564 6.254465 13.968305 4.378126 4.273884-1.355134 5.003572 2.814509 7.505358 5.420536a63.587062 63.587062 0 0 0 18.971878 10.424109c0 5.003572-4.065402 5.107813-6.567188 3.022991-9.59018-7.922322-22.411833-9.173215-32.62746-16.157368a258.205168 258.205168 0 0 0-30.334156-15.740404z" p-id="21345"></path><path d="M291.437951 461.202381c1.87634 0 4.273884 0 3.022991 2.710268-3.022991 5.107813-9.068974 6.462947-13.864064 8.964734-28.562057 14.802234-57.332597 29.083263-85.998896 43.468532-1.563616 0.833929-5.837501-1.459375-3.961161 3.022992 0 1.042411 3.544197 0.729688 5.003572 1.563616s0.93817 2.084822 1.459376 3.231473-2.814509 2.501786-3.961162 3.961162c-8.339287 3.022991-11.362278 12.717412-19.701565 15.740404-1.772098-6.462947 3.127233-9.485939 6.984153-12.613172 5.73326-4.79509 6.984153-8.860492 0-13.759823a10.424109 10.424109 0 0 1-3.127233-4.482367 5.003572 5.003572 0 0 1 0.833929-3.439955c0.729688-1.355134 1.459375-0.521205 2.814509 0.521205 4.586608 3.752679 8.235046 1.980581 13.4471-0.625447 32.106254-16.574333 65.046437-32.210495 97.048451-48.263622z" p-id="21346"></path><path d="M193.034366 528.125158a3.335715 3.335715 0 0 1 3.961161-3.961162 23.245762 23.245762 0 0 1 7.296876 1.146652c40.654023 20.848217 81.516529 41.696434 122.274793 61.814964 1.042411 0.521205 2.293304 0.729688 3.335715 1.250893s0 1.146652 0 1.250893l-3.335715 1.459375a23.141521 23.141521 0 0 1-7.296876-1.146652c-39.611612-20.327012-79.535948-40.237059-119.14756-60.56407a23.141521 23.141521 0 0 0-7.088394-1.250893z" p-id="21347"></path><path d="M720.285775 744.529651c1.87634 0 4.378126 0 2.918751 2.710268a19.805806 19.805806 0 0 1-9.173216 5.941742c-31.272326 15.114957-61.814964 31.272326-92.878807 46.387283-3.022991 1.459375-5.73326 6.984153-9.694421 3.231473s-9.068974-5.73326-9.173215-11.779242a3.022991 3.022991 0 0 1 3.85692-3.127233c8.026564 9.485939 8.130805 9.59018 16.053127 5.629019z" p-id="21348"></path><path d="M830.468602 689.490358a119.877248 119.877248 0 0 1 31.272326-17.199779c19.388842-10.424109 38.777684-20.118529 58.270766-30.021433 9.694421-5.003572 9.694421-4.899331 5.212055-14.697993a5.420536 5.420536 0 0 1 0.625446-3.648438c0.729688-1.772098 1.355134-1.146652 2.814509 0 14.802234 12.196207 14.593752 13.238618-3.544196 22.307592l-94.338183 47.221212q-1.772098-1.355134-1.146651-2.606027t0.833928-1.355134z" p-id="21349"></path><path d="M633.765674 957.077223c-1.87634 0-4.169643 0-3.022991-2.710268a13.342859 13.342859 0 0 1 5.629019-5.107813q54.309605-27.311164 108.723451-54.309605c3.127233-1.563616 6.254465-1.87634 6.67143 3.127232l-109.870104 55.039293z" p-id="21350"></path><path d="M830.468602 689.490358v165.22212a2.397545 2.397545 0 0 1-3.961161 0V704.292592c0-6.567188-2.710268-7.71384-8.026564-6.984153q-1.667857-1.355134-1.146652-2.606027t1.146652-1.355134c5.212054 1.980581 7.818081-3.335715 11.987725-3.85692z" p-id="21351"></path><path d="M185.112044 689.490358c-31.272326-15.740404-62.544651-31.272326-93.816977-47.01273a28.874781 28.874781 0 0 1-6.150224-3.961161c-1.563616-1.355134-2.397545-2.501786 0-4.169643s2.606027-3.127233 4.273885-4.065403c3.335715-1.772098 4.79509-9.59018 9.277456-5.316295s-2.710268 6.254465-5.212054 8.964733-1.980581 2.91875 1.355134 4.482367c29.083263 13.864064 57.958043 28.77054 87.249788 43.155809 1.87634 0.93817 3.544197 1.563616 3.022992 3.961161q1.459375 1.355134 1.042411 2.606027t-1.042411 1.355135z" p-id="21352"></path><path d="M185.112044 689.490358v-3.961162h3.961161a5.316295 5.316295 0 0 1 0 7.818082v161.3652a2.397545 2.397545 0 0 1-3.961161 0z" p-id="21353"></path><path d="M511.699364 1020.038839v-3.961161a177.209845 177.209845 0 0 1 38.986166-20.848218c21.369422-11.258037 42.947327-22.203351 64.525231-33.044424 3.022991-1.563616 6.254465-1.87634 6.67143 3.127233l-101.843541 50.765409z" p-id="21354"></path><path d="M520.03865 177.979353c-0.93817 14.176788-4.899331 19.493083-14.802234 15.010716-8.235046-3.648438-13.864064 1.459375-20.848217 0.729687 5.73326-9.798662 16.782815-16.574333 16.365851-29.917191 0-1.980581 3.335715-2.084822 4.899331-1.459375 3.961161 1.772098 5.420536 6.984153 10.424108 7.71384a9.381698 9.381698 0 0 1 3.961161 7.922323z" p-id="21355"></path><path d="M421.218102 787.789701c1.772098 8.235046-5.837501 10.424109-9.798662 15.427681-0.833929 0.93817-3.231474 0-5.212055-0.729688-28.979022-14.697993-58.166526-29.500227-87.249788-44.19822v-1.87634a2.293304 2.293304 0 0 1 3.961161 0c5.107813-2.084822 8.339287 2.397545 11.987725 4.169644 19.701565 9.381698 39.194648 19.388842 58.687731 29.187504 15.010716 7.505358 15.010716 7.609599 27.623888-1.980581zM939.921742 396.989873l-2.918751 3.022991c-1.355134 1.459375-3.961161 2.710268-3.961161 0 0-8.339287-7.609599-7.505358-11.675002-9.59018-26.372995-13.655582-53.162953-26.581477-79.952912-39.611612-1.87634-0.93817-3.752679-1.563616-2.91875-3.961161h3.752679a20.848217 20.848217 0 0 1 7.401117 1.146651c28.145093 14.281029 56.602909 28.040852 84.748002 41.696435a8.860492 8.860492 0 0 1 5.524778 7.296876zM185.112044 349.143214a35.025005 35.025005 0 0 1-3.127233 1.980581c-26.685718 13.134377-53.475677 25.95603-79.952912 39.611612-4.065402 2.084822-11.675002 1.250893-11.675002 9.59018 0 2.397545-2.814509 1.250893-3.85692 0s-5.316295-2.501786-1.772098-5.524777a27.728129 27.728129 0 0 1 6.045983-4.273885c27.311164-13.134377 54.622329-26.477236 81.516528-40.654023a32.106254 32.106254 0 0 1 10.424109-2.501786c2.501786-0.625447 3.127233-0.208482 2.397545 1.772098z" p-id="21356"></path><path d="M401.933501 236.979807a10.424109 10.424109 0 0 1 3.127232 1.563616c5.420536 5.524778 10.424109 11.153796 16.157369 16.991297 0.521205 0.625447 0 2.501786 0 3.648438s-1.563616 1.667857-2.81451 0a97.152691 97.152691 0 0 0-6.879911-6.984153c-9.694421-9.381698-10.424109-9.59018-22.828798-3.544197-16.261609 8.130805-32.62746 16.157368-48.576346 25.017861a16.782815 16.782815 0 0 1-8.860492 2.501786h-3.752679c-0.729688-2.397545 1.042411-3.022991 2.91875-3.961161l47.325453-23.558486c6.567188-3.231474 13.238618-6.045983 19.805806-9.277456 1.042411-0.625447 1.772098-3.022991 4.378126-2.397545zM691.723718 276.278696a15.531922 15.531922 0 0 1-7.818082-2.501786c-15.948886-8.756251-32.314736-16.887056-48.576345-25.017861-12.196207-6.150224-13.134377-5.941742-22.828798 3.544197a97.256932 97.256932 0 0 0-6.879912 6.984153c-1.250893 1.459375-2.084822 1.772098-2.814509 0a10.424109 10.424109 0 0 1-0.521205-3.648438 2.606027 2.606027 0 0 1 0.833928-1.563616c5.524778-5.629019 10.424109-13.342859 16.887056-16.053127s13.134377 4.899331 19.701565 7.818081c18.346431 8.026564 35.858933 17.825226 53.7884 26.789959 1.87634 0.93817 3.752679 1.563616 2.918751 3.961161 0 0.416964-2.397545-0.312723-4.690849-0.312723z" p-id="21357"></path><path d="M279.554467 902.454895h3.85692c27.102682 13.134377 54.101123 26.372995 80.995323 39.820094a8.339287 8.339287 0 0 1 5.629019 7.296876h-3.85692c-27.102682-13.134377-54.101123-26.372995-80.995323-39.820094a8.339287 8.339287 0 0 1-5.629019-7.296876zM503.881282 1012.116516v7.818082c-25.539066-13.238618-51.390855-26.477236-77.659608-38.986166-4.273884-2.084822-7.71384-3.544197-9.068975-8.130805 2.397545 0 4.690849 0 7.296876 1.146652 23.871209 12.50893 48.05514 24.496655 71.926349 37.005585 2.814509 1.355134 5.107813 0.625447 7.505358 1.146652z" p-id="21358"></path><path d="M232.333255 138.888946c0 8.130805-3.439956 11.362278-11.675001 11.466519s-12.50893-3.752679-11.987725-13.134377c0-7.609599 4.273884-10.424109 12.613171-10.424108s11.258037 4.273884 11.049555 12.091966zM937.002991 240.732486c0 8.339287-3.127233 11.675002-11.153796 11.987725s-12.821653-3.022991-12.50893-12.613172c0-7.922322 3.85692-11.153796 12.091966-10.945314s11.57076 3.439956 11.57076 11.570761z" p-id="21359"></path><path d="M112.039043 610.579856s-1.250893-0.833929-1.355134-1.355134-0.729688-3.022991 0-3.752679a76.095992 76.095992 0 0 1 6.567188-7.088394l36.171657-36.067415c1.146652-1.146652 2.397545-3.439956 4.065402-0.625447 0.625447 0.93817 0.833929 3.127233 0 3.752679q-21.890628 22.411833-44.093979 44.615185a5.003572 5.003572 0 0 1-1.355134 0.521205z" p-id="21360"></path><path d="M818.68936 693.451519v3.961161c-12.821653 10.945314-29.187504 15.531922-43.677015 23.558485a147.292653 147.292653 0 0 1-14.38527 7.713841 3.439956 3.439956 0 0 1-4.899331-3.752679z" p-id="21361"></path><path d="M912.089372 609.95441c0.729688-1.459375 0-0.93817 0 0s-1.563616 0.93817-2.814509 0l-41.696434-41.696434c-2.084822-2.084822-3.022991-4.482367-1.042411-6.67143s3.022991 0.833929 3.961161 1.87634c13.030136 12.821653 25.95603 25.851789 38.986166 38.881924a6.358706 6.358706 0 0 1 2.606027 7.6096z" p-id="21362"></path><path d="M826.507441 854.712478h3.961161c-12.50893 11.258037-29.083263 15.010716-43.051568 23.558485-5.003572 3.127233-10.424109 5.316295-15.948886 7.922322l-3.335715-1.355134c1.459375-1.87634 2.501786-4.482367 4.378126-5.420536 16.678574-8.443528 33.357147-16.574333 50.139962-24.705137a9.798662 9.798662 0 0 1 3.85692 0z" p-id="21363"></path><path d="M480.218556 319.851469a5.316295 5.316295 0 0 1 0 1.87634c-0.833929 1.563616-1.772098 1.87634-2.710268 0.93817-13.238618-13.342859-26.581477-26.581477-39.715854-40.028577-0.833929-0.833929 0-3.544197 0-5.107813s1.459375-0.833929 2.710268 0l38.36072 38.569201c0.93817 1.146652 1.042411 2.606027 1.355134 3.752679zM545.369234 323.291425c-2.397545 1.042411 0.833929 0-1.250893-1.042411a3.544197 3.544197 0 0 1-0.833929-3.335714 28.562057 28.562057 0 0 1 4.586608-5.941742c10.945314-11.049555 21.890628-22.09911 33.044424-32.940183 1.250893-1.250893 2.501786-5.524778 5.316296-1.772099a4.169643 4.169643 0 0 1-0.93817 5.212055l-38.569202 38.46496z" p-id="21364"></path><path d="M520.03865 177.979353c-5.837501 0-3.335715-4.899331-3.961161-7.818082a92.983048 92.983048 0 0 1 9.59018 0 18.554913 18.554913 0 0 0 22.620316-14.38527c0-0.729688 2.084822-0.93817 3.127232-1.355134s2.606027-1.87634 3.961161 0a37.005585 37.005585 0 0 1-18.763395 21.473664 67.027018 67.027018 0 0 1-16.574333 2.084822z" p-id="21365"></path><path d="M189.073205 693.451519v-7.818082l48.159381 23.558486c1.772098 0.833929 3.439956 1.563616 3.022992 3.961161a2.293304 2.293304 0 0 1-3.961161 0c-14.38527-2.397545-25.539066-11.883484-38.569202-17.408261a22.09911 22.09911 0 0 0-8.65201-2.293304z" p-id="21366"></path><path d="M185.112044 854.712478h3.961161a167.411183 167.411183 0 0 1 39.090407 17.929466c2.606027 1.250893 8.547769 0 8.130805 5.629019a2.293304 2.293304 0 0 1-3.961162 0 167.411183 167.411183 0 0 1-38.986166-17.512502c-2.606027-1.667857-8.547769 0-8.235045-6.045983z" p-id="21367"></path><path d="M421.426584 160.154127a27.311164 27.311164 0 0 1 3.961161-18.659154 14.176788 14.176788 0 0 1 6.045983-5.629019c3.439956 2.710268 0.729688 4.899331-0.93817 7.818081a30.334156 30.334156 0 0 0-5.316295 20.848218 48.263622 48.263622 0 0 0 7.818081 16.261609 4.065402 4.065402 0 0 1 0 3.544197c-2.189063 3.022991-3.231474 0-3.961161-1.250893a27.415405 27.415405 0 0 1-7.609599-22.933039z" p-id="21368"></path><path d="M484.179717 126.79698c7.505358-3.544197 9.277457 8.235046 14.906475 6.254465s6.984153-8.547769 12.821654-10.424109a14.906475 14.906475 0 0 1 3.752679 0c-3.648438 8.026564-12.50893 12.091966-15.219199 20.848217-0.729688 2.293304-3.752679 4.378126-4.378125 0-0.93817-8.026564-10.52835-9.381698-11.883484-16.678573z" p-id="21369"></path><path d="M463.435741 201.329356a28.562057 28.562057 0 0 1-19.701565-3.856921c-2.501786-1.146652-4.273884-4.065402-6.358706-6.150224 4.273884-4.065402 6.254465 0.93817 9.485939 2.084822 8.964733 3.231474 18.137949 9.068974 27.832369 0.521206a13.030136 13.030136 0 0 1 9.068975 0c1.042411 5.941742-5.524778 2.710268-7.71384 5.8375s-8.130805 0.93817-12.613172 1.563617z" p-id="21370"></path><path d="M775.325068 315.681826a10.424109 10.424109 0 0 0-8.756251 2.606027c-2.501786 2.606027-6.462947 2.606027-6.775671-1.98058s-7.922322-6.671429-8.026563-12.40469a23.245762 23.245762 0 0 0 5.629018 0c10.424109-2.814509 15.010716 3.231474 17.929467 11.779243z" p-id="21371"></path><path d="M461.872125 118.874657a88.187958 88.187958 0 0 1 11.258037 0c5.003572 0.729688 12.404689 7.505358 11.153796 7.505358a25.539066 25.539066 0 0 1-12.717412-1.98058 18.659154 18.659154 0 0 0-20.848217 1.876339 47.638176 47.638176 0 0 1-7.818082 4.169644 3.648438 3.648438 0 0 1-5.003572-1.459376c0-0.521205 1.042411-1.87634 1.87634-2.710268a26.060271 26.060271 0 0 1 22.09911-7.401117z" p-id="21372"></path><path d="M467.918108 729.831658c0 1.146652 1.355134 2.710268 0.833929 3.335714a35.025005 35.025005 0 0 1-15.740404 15.114958c-1.87634 0.729688 0 0.93817 0-1.667858a38.46496 38.46496 0 0 1 13.4471-17.408261c1.980581-1.146652-1.459375-0.104241 1.459375 0.625447z" p-id="21373"></path><path d="M452.698909 748.490812c0 10.424109-8.65201 14.593752-15.740403 19.701565-0.312723-10.736832 8.756251-14.593752 15.740403-19.701565z" p-id="21374"></path><path d="M421.218102 787.789701c0-10.424109 8.65201-14.593752 15.740404-19.701565-0.312723 10.841073-8.65201 14.593752-15.740404 19.701565z" p-id="21375"></path><path d="M865.910571 484.865107c0 10.424109-8.65201 14.593752-15.740404 19.701565 0-10.736832 8.65201-14.593752 15.740404-19.701565z" p-id="21376"></path><path d="M681.820815 134.615061c-3.127233-0.93817-8.130805 2.397545-8.756251-3.961161v-1.87634a9.277457 9.277457 0 0 1 10.424108-1.250893c1.667857 0 2.814509 2.606027 4.482367 3.022992s3.544197 0 4.586607 2.293304a28.979022 28.979022 0 0 1-5.003572 1.772098 36.692862 36.692862 0 0 1-5.733259 0z" p-id="21377"></path><path d="M139.350207 465.163542c-4.273884-4.899331-8.756251-10.424109-13.134376-15.323439a3.439956 3.439956 0 0 1 0.938169-3.231474c2.397545-1.042411 0-2.397545 1.146652-0.625446 4.586608 5.003572 11.049555 8.443528 13.4471 15.42768a9.798662 9.798662 0 0 1 0 3.752679zM896.348968 446.504388c0 1.146652 1.355134 2.710268 0.833929 3.335715a35.025005 35.025005 0 0 1-15.636163 14.802234c-1.87634 0.729688 0 0.93817 0-1.667858a38.46496 38.46496 0 0 1 13.759823-17.095538c2.084822-1.146652-1.459375-0.104241 1.042411 0.625447zM141.851993 465.163542c7.088394 5.107813 15.740404 8.964733 15.740404 19.701565-6.984153-5.107813-15.740404-8.964733-15.740404-19.701565zM881.650975 465.163542c0 10.424109-8.65201 14.593752-15.740404 19.701565 0-10.736832 8.547769-14.593752 15.740404-19.701565z" p-id="21378"></path><path d="M173.332801 502.064886l-2.293304 2.084822c-4.273884-5.316295-10.945314-8.547769-13.342859-15.531922a9.798662 9.798662 0 0 1 0-3.752679h1.772099a76.200233 76.200233 0 0 1 13.864064 15.219199v1.98058z" p-id="21379"></path><path d="M499.920121 689.490358a3.335715 3.335715 0 0 1 3.961161 3.961161 4.899331 4.899331 0 0 0-1.98058 0c-5.107813 2.501786-5.73326 11.258037-13.759824 9.59018 0.625447-7.505358 6.254465-10.424109 11.779243-13.551341z" p-id="21380"></path><path d="M106.410024 418.567777a9.277457 9.277457 0 0 1 0 1.772099c-0.833929 1.772098-1.772098 1.87634-2.814509 0-2.606027-4.273884-9.277457-5.629019-8.547769-12.196207 0-3.544197 7.71384 1.355134 11.675002 8.235045 0 0.833929-0.312723 1.563616-0.312724 2.189063zM916.884462 418.567777c0.729688-5.629019 6.358706-7.71384 9.381697-11.675001a6.775671 6.775671 0 0 1 2.501787 1.459375v1.876339c-1.250893 5.524778-6.879912 7.505358-9.798662 11.675002z" p-id="21381"></path><path d="M712.363453 138.159258a3.231474 3.231474 0 0 1-2.81451 4.273884c-4.690849 0.93817-6.671429-5.212054-11.57076-4.690848-1.667857 0-1.87634-2.084822 0-2.397545a17.30402 17.30402 0 0 1 14.281029 1.250893s0.104241 1.250893 0.104241 1.563616z" p-id="21382"></path><path d="M112.560248 426.073135c2.814509 2.814509 5.420536 5.629019 8.339287 8.339287a4.169643 4.169643 0 0 1 0.93817 5.212054c-2.814509 3.752679-3.961161-0.625447-5.316295-1.876339a37.526791 37.526791 0 0 1-6.150224-7.296876 3.544197 3.544197 0 0 1 0.729687-3.439956c2.397545-1.355134-0.93817-1.87634 1.459375-0.93817z" p-id="21383"></path><path d="M747.805422 345.911741c0 2.710268-7.505358 12.300448-10.424109 12.50893 0 0-1.563616-2.084822-1.563616-3.127233 0.521205-5.941742 6.671429-7.505358 9.381698-11.779242z" p-id="21384"></path><path d="M902.811915 441.083852c0-1.146652-1.563616-2.293304-1.459375-3.335715 0.729688-5.73326 6.671429-7.609599 9.485939-11.779243 0.729688 0.833929 2.084822 1.667857 2.084822 2.606027a23.03728 23.03728 0 0 1-10.111386 12.508931z" p-id="21385"></path><path d="M783.247391 245.736058c0 2.501786 0.521205 5.107813-1.980581 6.879912-0.833929-2.189063-1.667857-4.378126-2.710268-6.567189 0-0.521205-0.833929-0.93817-1.355134-1.355134a4.482367 4.482367 0 0 1 0-7.71384h1.876339c5.212054 0 3.439956 4.169643 3.752679 6.984152a13.551341 13.551341 0 0 1 0.416965 1.772099z" p-id="21386"></path><path d="M668.582197 396.78139a14.176788 14.176788 0 0 1-13.030136 5.316296c-1.980581-0.93817-1.563616-2.084822 0-3.961162a11.049555 11.049555 0 0 1 11.779243-3.752679c0.312723 0.104241 0.729688 1.667857 1.250893 2.397545z" p-id="21387"></path><path d="M779.286229 223.219984c0 1.772098 0.93817 4.690849-1.355134 5.003572-4.065402 0.521205-1.772098-3.231474-2.710268-5.003572s-3.127233-2.606027-3.648438-4.273885a3.752679 3.752679 0 0 1 1.250893-5.003572 5.837501 5.837501 0 0 1 3.544197-0.521206 3.335715 3.335715 0 0 1 2.91875 3.961162 52.120543 52.120543 0 0 0 0 5.837501z" p-id="21388"></path><path d="M484.179717 711.485227v3.752679c-2.606027 2.91875-5.629019 5.524778-8.235046 8.443528-1.250893 1.355134-2.084822 1.563616-2.814509 0s-0.93817-2.91875 0-3.648438c2.91875-3.439956 6.045983-6.671429 9.277457-10.424109-0.521205 0.104241 0.93817 1.250893 1.772098 1.87634z" p-id="21389"></path><path d="M515.660525 122.835818a13.551341 13.551341 0 0 1 19.701565 0z" p-id="21390"></path><path d="M659.721705 131.070864a75.991751 75.991751 0 0 1-8.130805 0c-0.625447 0-1.250893-1.563616-1.563616-2.501786s0.833929-1.250893 1.250893-1.250893a27.83237 27.83237 0 0 1 7.71384 0c3.127233 0.729688 8.65201-2.91875 8.860492 2.501786 0.312723 2.397545-5.420536 0.104241-8.130804 1.250893z" p-id="21391"></path><path d="M767.923951 193.615515c5.941742 1.042411 2.397545 8.443528 6.775671 10.424109-1.042411 0-2.293304 1.250893-3.231474 1.146652-6.254465-0.833929-3.127233-8.026564-7.088394-10.424109z" p-id="21392"></path><path d="M721.849391 374.68228c-0.729688-1.772098-1.667857-3.022991-1.459375-3.961161a8.756251 8.756251 0 0 1 8.65201-7.818081c0.93817 0 1.980581 1.146652 3.022992 1.772098z" p-id="21393"></path><path d="M679.944475 393.86264l-2.91875-1.459375c1.042411-0.625447 2.084822-1.980581 2.91875-1.87634 3.85692 0.729688 4.899331-3.544197 7.922323-3.961161a5.107813 5.107813 0 0 1 3.439955 0.625447c3.022991 2.293304-0.729688 2.814509-1.355134 3.961161-1.772098 2.91875-4.690849 3.752679-10.007144 2.710268z" p-id="21394"></path><path d="M741.967921 154.212385c3.127233 3.127233 6.150224 6.254465 9.173215 9.485939 0 0-0.833929 1.772098-1.563616 2.397545s-1.250893 0-1.772098 0a9.068974 9.068974 0 0 1-7.713841-8.756251c0-1.042411 1.146652-1.980581 1.87634-3.127233z" p-id="21395"></path><path d="M638.665005 126.79698a14.906475 14.906475 0 0 1 3.856921 0 12.50893 12.50893 0 0 1 3.022991 1.876339c-1.042411 0.625447-1.980581 1.772098-3.022991 1.87634a32.940183 32.940183 0 0 1-7.818082 0.521205 22.203351 22.203351 0 0 1-5.003572-1.876339 40.549782 40.549782 0 0 1 5.003572-1.87634 16.36585 16.36585 0 0 1 3.961161-0.521205z" p-id="21396"></path><path d="M555.063655 154.316626h-3.752679v-15.740404c3.439956 0 3.961161 1.980581 3.961161 4.586608s-0.208482 7.505358-0.208482 11.153796z" p-id="21397"></path><path d="M732.065018 148.479125c-1.042411 0.625447-1.980581 1.772098-3.022992 1.87634-4.586608 0.625447-5.941742-3.752679-8.65201-5.837501 1.042411-0.625447 1.87634-1.667857 3.022992-1.876339 4.586608-1.146652 5.837501 3.752679 8.65201 5.8375z" p-id="21398"></path><path d="M762.08645 185.693193c-1.355134-1.146652-2.501786-2.293304-3.85692-3.127233a5.73326 5.73326 0 0 1-2.397545-6.462947c0-0.625447 2.293304-1.355134 2.501786-1.250893 1.772098 2.397545 5.629019 3.335715 5.212054 7.192635a15.531922 15.531922 0 0 1-1.459375 3.648438z" p-id="21399"></path><path d="M775.012345 287.432492c0.729688 6.150224 0 9.068974-4.273885 8.547769-1.042411 0-2.084822-1.146652-3.022991-1.772098a65.35916 65.35916 0 0 1 6.671429-9.068975s0.729688 3.127233 0.625447 2.293304z" p-id="21400"></path><path d="M609.790225 134.51082l-3.544197-1.87634c1.772098-2.501786 4.482367-2.189063 6.879912-1.876339a20.848217 20.848217 0 0 1 5.003572 1.876339c-1.87634 2.501786-4.273884 2.084822-8.339287 1.87634z" p-id="21401"></path><path d="M590.818347 134.823543l3.544197 1.87634c-1.772098 2.501786-4.482367 2.189063-6.879911 1.876339a20.848217 20.848217 0 0 1-5.003572-1.876339c1.87634-2.606027 4.482367-2.084822 8.339286-1.87634z" p-id="21402"></path><path d="M707.672604 382.604603l-3.022992-1.980581c2.293304-1.563616 3.127233-5.212054 6.567189-5.003572 0 0 1.042411 1.980581 1.146652 3.127233 0.416964 3.648438-2.189063 3.752679-4.690849 3.85692z" p-id="21403"></path><path d="M755.727744 335.487632c0 3.544197-2.293304 3.961161-4.899331 3.648438s-1.980581-1.250893-3.022991-1.876339l6.671429-5.107813z" p-id="21404"></path><path d="M783.247391 266.584275c0 1.87634 0.833929 4.79509-1.355135 5.003572-3.85692 0-2.397545-3.127233-2.501786-5.212054s-0.93817-4.79509 1.355135-5.003572c3.85692-0.416964 2.084822 3.231474 2.501786 5.212054z" p-id="21405"></path><path d="M641.896479 398.449248l3.544197 1.876339c-1.772098 2.501786-4.482367 2.189063-6.879912 1.87634a20.848217 20.848217 0 0 1-5.003572-1.87634c1.87634-2.606027 4.586608-2.084822 8.339287-1.876339z" p-id="21406"></path><path d="M240.255578 319.642987c0-5.837501 4.899331-3.335715 7.818081-3.961161-0.312723 5.837501-4.899331 3.022991-7.818081 3.961161z" p-id="21407"></path><path d="M838.286684 347.162634c-3.022991-0.625447-7.505358 1.980581-7.818082-3.961161 3.022991 0.625447 7.505358-1.980581 7.818082 3.961161z" p-id="21408"></path><path d="M783.247391 319.642987c-3.022991-0.625447-7.505358 1.980581-7.818082-3.961161 2.91875 0.521205 7.505358-1.980581 7.818082 3.961161z" p-id="21409"></path><path d="M543.07593 125.650328a15.531922 15.531922 0 0 1-5.003572 1.042411 2.814509 2.814509 0 0 1-2.606027-3.752679h3.544197a3.439956 3.439956 0 0 1 4.065402 2.710268z" p-id="21410"></path><path d="M216.592851 331.42223c0-5.837501 4.899331-3.335715 7.818082-3.961161-0.208482 5.837501-4.79509 3.335715-7.818082 3.961161z" p-id="21411"></path><path d="M549.330395 138.576222a4.690849 4.690849 0 0 1-1.772098-6.254465c0.625447-1.563616 1.980581-1.87634 2.501786-0.625446a43.677015 43.677015 0 0 1 1.146652 5.003572c0.104241 1.87634 0.104241 2.501786-1.87634 1.876339zM318.957597 280.239857c0-5.837501 4.899331-3.335715 7.818082-3.961161-0.312723 5.941742-4.79509 3.335715-7.818082 3.961161zM704.545371 280.239857c-3.022991-0.625447-7.505358 1.980581-7.818081-3.961161 2.91875 0.729688 7.505358-1.87634 7.818081 3.961161z" p-id="21412"></path><path d="M311.55648 284.201018c0-5.837501 4.899331-3.335715 7.818081-3.961161-0.729688 5.941742-5.316295 3.335715-7.818081 3.961161zM704.545371 280.239857c3.022991 0.625447 7.505358-1.980581 7.818082 3.961161-2.91875-0.625447-7.505358 1.980581-7.818082-3.961161z" p-id="21413"></path><path d="M193.034366 343.201473c0 5.837501-4.899331 3.335715-7.818081 3.961161 0.312723-5.941742 4.79509-3.335715 7.818081-3.961161z" p-id="21414"></path><path d="M303.217193 288.16218c0-5.837501 4.899331-3.335715 7.818082-3.961162-0.312723 5.837501-4.899331 3.231474-7.818082 3.961162zM712.467694 284.201018c3.022991 0.625447 7.505358-1.980581 7.818081 3.961162-3.022991-0.729688-7.505358 1.87634-7.818081-3.961162zM822.337798 339.553035c3.022991 0.625447 7.505358-1.980581 7.818081 3.961161-2.710268-0.93817-7.192635 1.667857-7.818081-3.961161z" p-id="21415"></path><path d="M499.920121 343.201473v3.961161c-3.231474 0-4.169643-1.772098-3.85692-4.378126 0-1.042411 0.93817-2.814509 1.459375-2.814509s2.710268 1.355134 2.397545 3.231474z" p-id="21416"></path><path d="M193.034366 343.201473c0-5.837501 4.899331-3.335715 7.818082-3.961162-0.312723 5.941742-4.899331 3.335715-7.818082 3.961162z" p-id="21417"></path><path d="M814.728198 335.383391c3.022991 0.625447 7.505358-1.980581 7.818082 3.961161-2.91875-0.625447-7.505358 1.87634-7.818082-3.961161zM208.77477 335.383391c0 5.837501-4.899331 3.335715-7.818081 3.961161 0.312723-5.941742 4.79509-3.439956 7.818081-3.961161z" p-id="21418"></path><path d="M295.294871 292.0191c0-5.837501 4.899331-3.335715 7.818081-3.961162-0.208482 5.941742-4.79509 3.439956-7.818081 3.961162zM720.285775 288.16218c3.022991 0.625447 7.505358-1.980581 7.818082 3.961161-2.91875-0.625447-7.505358 1.87634-7.818082-3.961161z" p-id="21419"></path><path d="M814.728198 335.383391c-3.022991-0.625447-7.505358 1.980581-7.818081-3.961161 2.91875 0.521205 7.505358-2.293304 7.818081 3.961161z" p-id="21420"></path><path d="M287.476789 295.980261c0-5.837501 4.899331-3.335715 7.818082-3.961161-0.312723 5.837501-4.586608 3.335715-7.818082 3.961161z" p-id="21421"></path><path d="M216.592851 331.42223c0 5.837501-4.899331 3.335715-7.818081 3.961161 0.312723-6.254465 4.899331-3.439956 7.818081-3.961161zM806.805876 331.42223c-3.022991-0.625447-7.505358 1.980581-7.818082-3.961161 2.501786 0.625447 7.505358-1.980581 7.818082 3.961161z" p-id="21422"></path><path d="M728.520821 292.0191c3.022991 0.625447 7.505358-1.980581 7.818081 3.961161-3.335715-0.625447-7.818081 1.87634-7.818081-3.961161zM236.294417 713.048843h3.961161a3.335715 3.335715 0 0 1 3.961161 3.961161c-3.022991-0.625447-7.609599 1.980581-7.922322-3.961161z" p-id="21423"></path><path d="M252.03482 720.971165c-3.022991-0.625447-7.505358 1.980581-7.818081-3.961161 2.91875 0.625447 7.505358-2.189063 7.818081 3.961161zM259.435937 725.24505c-3.022991-0.625447-7.505358 1.980581-7.818081-3.961161 3.439956 0.208482 7.818081-2.293304 7.818081 3.961161zM279.554467 299.941422c0-5.837501 4.899331-3.335715 7.818081-3.961161-0.208482 5.941742-4.79509 3.335715-7.818081 3.961161zM267.775224 728.789247c3.022991 0.625447 7.505358-1.980581 7.818082 3.961161-2.91875-0.625447-7.505358 1.980581-7.818082-3.961161zM743.84426 299.941422c-3.022991-0.625447-7.505358 1.980581-7.818081-3.961161 2.91875 0.625447 7.505358-1.980581 7.818081 3.961161zM283.515628 736.711569c-3.022991-0.625447-7.505358 1.980581-7.818081-3.961161 2.91875 0.625447 7.505358-1.980581 7.818081 3.961161zM291.437951 740.568489c-3.022991-0.625447-7.505358 1.980581-7.818082-3.961161 2.91875 0.625447 7.088394-1.87634 7.818082 3.961161zM291.437951 740.568489c3.022991 0.625447 7.505358-1.980581 7.818081 3.961162-3.022991-0.521205-7.505358 1.563616-7.818081-3.961162zM307.178354 748.490812c-3.022991-0.625447-7.505358 1.980581-7.818081-3.961161 2.91875 0.625447 7.401117-1.87634 7.818081 3.961161zM791.065472 323.499907c3.022991 0.625447 7.505358-1.980581 7.818081 3.961162-2.91875-0.625447-7.818081 1.667857-7.818081-3.961162zM314.996436 752.451973c-3.022991-0.625447-7.505358 1.980581-7.818082-3.961161 2.91875 0.625447 7.505358-2.397545 7.818082 3.961161zM279.554467 299.941422c0 5.837501-4.899331 3.335715-7.818081 3.961161 0.312723-6.045983 4.899331-3.439956 7.818081-3.961161z" p-id="21424"></path><path d="M322.918758 756.517375h-3.961161a3.335715 3.335715 0 0 1-3.961161-3.961161c3.022991 0.416964 7.505358-2.084822 7.922322 3.961161z" p-id="21425"></path><path d="M751.766583 303.902583c-3.022991-0.625447-7.505358 1.980581-7.818082-3.961161 2.91875 0.521205 7.505358-2.084822 7.818082 3.961161zM263.814063 308.280709c0-5.837501 4.899331-3.335715 7.818081-3.961161-0.208482 5.420536-4.79509 2.91875-7.818081 3.961161zM263.814063 308.280709c0 5.837501-4.899331 3.335715-7.818081 3.961161 0.312723-6.358706 4.899331-3.961161 7.818081-3.961161zM255.995982 311.720665c0 5.837501-4.899331 3.335715-7.818082 3.961161 0.312723-5.941742 4.79509-3.335715 7.818082-3.961161zM259.435937 725.24505c3.022991 0.625447 7.505358-1.980581 7.818082 3.961161-2.501786-0.93817-6.984153 1.563616-7.818082-3.961161zM240.255578 882.232124c3.022991 0.625447 7.505358-1.980581 7.818081 3.961161-2.91875-0.625447-7.505358 1.980581-7.818081-3.961161z" p-id="21426"></path><path d="M255.995982 890.154447c-3.022991-0.625447-7.505358 1.980581-7.818082-3.961162 2.91875 0.625447 7.505358-1.980581 7.818082 3.961162zM263.814063 894.115608c-3.022991-0.625447-7.505358 1.980581-7.818081-3.961161 3.439956 0.625447 7.505358-1.980581 7.818081 3.961161z" p-id="21427"></path><path d="M271.736386 897.972528c-3.022991-0.625447-7.505358 1.980581-7.818082-3.961161 2.91875 0.625447 7.505358-1.980581 7.818082 3.961161zM224.515174 327.461069c0-5.837501 4.899331-3.335715 7.818081-3.961162-0.312723 5.629019-4.899331 3.335715-7.818081 3.961162zM279.554467 902.454895c-3.022991-0.625447-7.505358 1.980581-7.818081-3.961162 2.91875 0.104241 7.505358-2.397545 7.818081 3.961162zM783.247391 319.642987c3.022991 0.625447 7.505358-1.980581 7.818081 3.961162-2.91875-0.625447-7.505358 1.87634-7.818081-3.961162zM370.035729 949.154901c3.022991 0.625447 7.505358-1.980581 7.818081 3.961161-2.91875-0.625447-7.401117 1.459375-7.818081-3.961161zM385.776133 957.077223c-3.022991-0.625447-7.505358 1.980581-7.818082-3.961161 3.022991 0.625447 7.505358-1.980581 7.818082 3.961161zM393.698455 960.934143c-3.022991-0.625447-7.505358 1.980581-7.818081-3.961161 2.91875 0.625447 7.505358-2.397545 7.818081 3.961161zM393.698455 960.934143c3.022991 0.625447 7.505358-1.980581 7.818082 3.961162-2.91875-0.625447-7.505358 1.980581-7.818082-3.961162zM240.255578 319.642987c0 5.837501-4.899331 3.335715-7.818082 3.961162 0.312723-5.941742 4.79509-3.439956 7.818082-3.961162zM401.516537 964.999546c3.022991 0.625447 7.505358-1.980581 7.818081 3.961161-2.91875-0.729688-7.401117 1.87634-7.818081-3.961161zM417.25694 972.817627c-3.022991-0.625447-7.505358 1.980581-7.818081-3.961161 3.022991 0.625447 7.505358-1.980581 7.818081 3.961161zM232.333255 878.375204h3.961162a3.335715 3.335715 0 0 1 3.961161 3.961161c-3.022991-0.729688-7.505358 1.87634-7.922323-3.961161z" p-id="21428"></path><path d="M374.101131 614.7495a3.335715 3.335715 0 0 1 3.961161 3.961161 3.335715 3.335715 0 0 1-3.961161-3.961161z" p-id="21429"></path><path d="M499.920121 347.162634a3.335715 3.335715 0 0 1 3.961161 3.961161 3.335715 3.335715 0 0 1-3.961161-3.961161z" p-id="21430"></path><path d="M173.332801 545.63766c-0.729688 0.625447-1.772098 1.87634-2.293304 1.667857s-1.772098-1.667857-0.729687-2.293303a15.32344 15.32344 0 0 1 3.022991-1.146652v1.772098z" p-id="21431"></path><path d="M629.804513 626.528742a3.335715 3.335715 0 0 1 3.961161-3.961161 3.335715 3.335715 0 0 1-3.961161 3.961161z" p-id="21432"></path><path d="M517.015659 425.134966c0-0.625447-1.146652-1.042411-1.250893-1.563617a27.83237 27.83237 0 0 1 0-3.752679c5.629019 0 7.818081-8.339287 14.38527-5.212054 0.521205 0 1.355134 1.146652 1.250893 1.250893a23.454244 23.454244 0 0 1-11.779243 8.026564z" p-id="21433"></path><path d="M565.904728 410.124249c-2.397545 0-6.358706 0.729688-6.567188-1.98058s4.378126-1.146652 6.045983-2.710269 5.629019-5.316295 9.277456-1.146652v1.87634c-0.625447 6.358706-5.629019 2.91875-8.756251 3.961161z" p-id="21434"></path><path d="M591.131071 406.163088h-6.567189c-1.980581 0-1.355134-1.042411-1.250893-1.250893s0.833929-2.397545 1.563616-2.501786a18.971878 18.971878 0 0 1 5.73326 0c2.397545 0 6.775671-1.355134 6.879912 1.355134 0.104241 5.003572-5.003572 0.625447-6.358706 2.397545z" p-id="21435"></path><path d="M542.867448 413.876928l-3.544197-1.355134c1.772098-2.501786 4.482367-2.189063 6.879912-1.876339a20.848217 20.848217 0 0 1 5.107813 1.876339c-1.980581 1.980581-4.586608 1.563616-8.443528 1.355134z" p-id="21436"></path></svg>