<?xml version="1.0" standalone="no"?><!DOCTYPE svg PUBLIC "-//W3C//DTD SVG 1.1//EN" "http://www.w3.org/Graphics/SVG/1.1/DTD/svg11.dtd"><svg t="1622460007185" class="icon" viewBox="0 0 1024 1024" version="1.1" xmlns="http://www.w3.org/2000/svg" p-id="13464" xmlns:xlink="http://www.w3.org/1999/xlink" width="248" height="248"><defs><style type="text/css"></style></defs><path d="M785.986653 173.345h-96.147804V216.667691c0 23.102161-18.791995 41.894156-41.894156 41.894156h-55.539943v55.524594c0 23.087834-18.808368 41.879829-41.87983 41.87983h-92.286869c-23.103184 0-41.895179-18.793018-41.895179-41.87983v-55.524594h-55.539944c-23.086811 0-41.895179-18.791995-41.895179-41.894156v-43.321668h-82.533739c-39.569204 0-77.386508 24.917506-77.386508 64.532759V883.065154c0 39.600927 37.817304 78.100776 77.386508 78.100775h549.613666c39.585577 0 63.772442-38.499849 63.772443-78.100775V237.877759c-0.001023-39.615253-24.187889-64.532759-63.773466-64.532759z m-40.080857 604.426039c0 15.753799-12.775978 28.545126-28.54615 28.545127H295.680744c-15.785521 0-28.561499-12.791327-28.561499-28.545127v-22.840194c0-15.753799 12.775978-28.545126 28.561499-28.545127h421.679925c15.769149 0 28.54615 12.791327 28.54615 28.545127v22.840194z m0-142.353148c0 15.753799-12.775978 28.528754-28.54615 28.528753H295.680744c-15.785521 0-28.561499-12.774955-28.561499-28.528753v-22.840195c0-15.767102 12.775978-28.560476 28.561499-28.560476h421.679925c15.769149 0 28.54615 12.793374 28.54615 28.560476v22.840195z m0-142.370545c0 15.753799-12.775978 28.545126-28.54615 28.545126H295.680744c-15.785521 0-28.561499-12.791327-28.561499-28.545126v-22.838148c0-15.769149 12.775978-28.54615 28.561499-28.54615h421.679925c15.769149 0 28.54615 12.775978 28.54615 28.54615v22.838148z" fill="#26BFBD" p-id="13465"></path><path d="M539.08231 24.37106c7.691169 0 13.969153 6.28003 13.969153 13.970177v69.463048c0 7.691169 6.28003 13.9712 13.970176 13.971199h69.509097c7.67582 0 13.95585 6.279007 13.95585 13.954827v69.524446c0 7.674796-6.28003 13.954827-13.95585 13.954827h-69.509097c-7.691169 0-13.970176 6.29538-13.970176 13.971199v69.478398c0 7.674796-6.279007 13.970176-13.969153 13.970176h-69.433372c-7.690146 0-13.969153-6.29538-13.969153-13.970176v-69.478398c0-7.674796-6.28003-13.9712-13.971199-13.971199h-69.494771c-7.691169 0-13.970176-6.279007-13.970176-13.954827v-69.524446c0-7.674796 6.279007-13.954827 13.970176-13.954827h69.494771c7.691169 0 13.9712-6.28003 13.971199-13.971199V38.341237c0-7.690146 6.279007-13.970176 13.969153-13.970177h69.433372" fill="#26BFBD" p-id="13466"></path></svg>