<?xml version="1.0" standalone="no"?><!DOCTYPE svg PUBLIC "-//W3C//DTD SVG 1.1//EN" "http://www.w3.org/Graphics/SVG/1.1/DTD/svg11.dtd"><svg t="1622460020196" class="icon" viewBox="0 0 1024 1024" version="1.1" xmlns="http://www.w3.org/2000/svg" p-id="13749" xmlns:xlink="http://www.w3.org/1999/xlink" width="248" height="248"><defs><style type="text/css"></style></defs><path d="M473.349991 99.102587l-108.111913 209.917297a94.057364 94.057364 0 0 0 0 76.759458c0-3.60373 294.785149 403.797994 294.785149 403.797994l30.091149-40.90234L954.988562 384.698223V324.335738L834.44378 118.742917 650.653528 99.102587z" fill="#F5A540" p-id="13750"></path><path d="M978.232624 309.019884l-102.165758-180.186521a105.409115 105.409115 0 0 0-91.895126-52.254091H238.927327a105.589301 105.589301 0 0 0-91.895126 52.254091l-102.165757 180.186521A95.679043 95.679043 0 0 0 50.812599 414.428999l344.156255 475.332043a145.770896 145.770896 0 0 0 233.161359 0l128.653176-178.384656 1.441492-1.801866L973.007214 414.428999a96.039416 96.039416 0 0 0 5.22541-105.409115z m-52.614465 70.633116L756.783389 612.634172l-1.621679 1.801865-173.879993 240.729193a87.931022 87.931022 0 0 1-139.464367 0L97.480908 379.653a38.559916 38.559916 0 0 1-2.342425-42.163646L198.205173 157.48302a47.389055 47.389055 0 0 1 41.623087-23.063875h544.34348a47.389055 47.389055 0 0 1 41.623087 23.063875l102.165757 180.186521a38.199542 38.199542 0 0 1-2.342425 41.983459z" p-id="13751"></path><path d="M699.303889 504.522259a28.649657 28.649657 0 0 0-40.181594 6.486715l-141.806793 195.502376a7.027274 7.027274 0 0 1-5.946155 2.702797 7.387647 7.387647 0 0 1-5.765969-2.702797L363.976773 511.008974a28.829843 28.829843 0 0 0-46.848496 33.69488l141.806793 195.682562a65.587894 65.587894 0 0 0 105.228928 0l141.626606-195.682562a28.649657 28.649657 0 0 0-6.486715-40.181595z" p-id="13752"></path></svg>